HIERARCHY
ROOT Hips
{
	OFFSET 0.000000 103.266502 0.000000
	CHANNELS 6 Xposition Yposition Zposition Xrotation Yrotation Zrotation 
	JOINT Spine
	{
		OFFSET -0.002400 12.777504 0.315300
		CHANNELS 3 Xrotation Yrotation Zrotation
		JOINT Spine1
		{
			OFFSET -0.002067 5.816869 0.032633
			CHANNELS 3 Xrotation Yrotation Zrotation
			JOINT Spine1_split
			{
				OFFSET -0.002067 5.816869 0.032633
				CHANNELS 3 Xrotation Yrotation Zrotation
				JOINT Spine2
				{
					OFFSET -0.002067 5.816869 0.032633
					CHANNELS 3 Xrotation Yrotation Zrotation
					JOINT Neck
					{
						OFFSET -0.003700 21.199493 -0.826900
						CHANNELS 3 Xrotation Yrotation Zrotation
						JOINT Head
						{
							OFFSET 0.000000 20.442200 4.834800
							CHANNELS 3 Xrotation Yrotation Zrotation
							JOINT HeadTop_End
							{
								OFFSET 0.000000 34.668396 4.968400
								CHANNELS 3 Xrotation Yrotation Zrotation
								End Site
								{
									OFFSET 0.000000 0.000000 0.000000
								}
							}
						}
					}
					JOINT LeftShoulder
					{
						OFFSET 3.288150 8.794197 -1.372250
						CHANNELS 3 Xrotation Yrotation Zrotation
						JOINT LeftShoulder_split
						{
							OFFSET 3.288150 8.794197 -1.372250
							CHANNELS 3 Xrotation Yrotation Zrotation
							JOINT LeftArm
							{
								OFFSET 11.953299 -2.279007 -0.146200
								CHANNELS 3 Xrotation Yrotation Zrotation
								JOINT LeftForeArm
								{
									OFFSET 18.448900 0.000000 0.000000
									CHANNELS 3 Xrotation Yrotation Zrotation
									JOINT LeftHand
									{
										OFFSET 29.527798 0.000000 0.000000
										CHANNELS 3 Xrotation Yrotation Zrotation
										JOINT LeftHandThumb1
										{
											OFFSET 10.739754 -2.369614 9.225399
											CHANNELS 3 Xrotation Yrotation Zrotation
											JOINT LeftHandThumb2
											{
												OFFSET 4.926170 -2.844131 2.844125
												CHANNELS 3 Xrotation Yrotation Zrotation
												JOINT LeftHandThumb3
												{
													OFFSET 4.614891 -2.664413 2.664409
													CHANNELS 3 Xrotation Yrotation Zrotation
													JOINT LeftHandThumb4
													{
														OFFSET 4.432465 -2.559082 2.559083
														CHANNELS 3 Xrotation Yrotation Zrotation
														End Site
														{
															OFFSET 0.000000 0.000000 0.000000
														}
													}
												}
											}
										}
										JOINT LeftHandIndex1
										{
											OFFSET 26.467674 0.187653 6.405298
											CHANNELS 3 Xrotation Yrotation Zrotation
											JOINT LeftHandIndex2
											{
												OFFSET 8.792900 0.000000 0.000000
												CHANNELS 3 Xrotation Yrotation Zrotation
												JOINT LeftHandIndex3
												{
													OFFSET 10.075203 0.000000 0.000000
													CHANNELS 3 Xrotation Yrotation Zrotation
													End Site
													{
														OFFSET 0.000000 0.000000 0.000000
													}
												}
											}
										}
										JOINT LeftHandMiddle1
										{
											OFFSET 25.764404 0.000000 0.000000
											CHANNELS 3 Xrotation Yrotation Zrotation
											JOINT LeftHandMiddle2
											{
												OFFSET 9.393974 0.000000 0.000000
												CHANNELS 3 Xrotation Yrotation Zrotation
												JOINT LeftHandMiddle3
												{
													OFFSET 10.771950 0.000000 0.000000
													CHANNELS 3 Xrotation Yrotation Zrotation
													End Site
													{
														OFFSET 0.000000 0.000000 0.000000
													}
												}
											}
										}
										JOINT LeftHandRing1
										{
											OFFSET 24.660927 0.144547 -6.225808
											CHANNELS 3 Xrotation Yrotation Zrotation
											JOINT LeftHandRing2
											{
												OFFSET 9.393799 0.000000 0.000000
												CHANNELS 3 Xrotation Yrotation Zrotation
												JOINT LeftHandRing3
												{
													OFFSET 9.928497 0.000000 0.000000
													CHANNELS 3 Xrotation Yrotation Zrotation
													End Site
													{
														OFFSET 0.000000 0.000000 0.000000
													}
												}
											}
										}
										JOINT LeftHandPinky1
										{
											OFFSET 23.655350 0.125290 -12.815412
											CHANNELS 3 Xrotation Yrotation Zrotation
											JOINT LeftHandPinky2
											{
												OFFSET 8.425102 0.000000 0.000000
												CHANNELS 3 Xrotation Yrotation Zrotation
												JOINT LeftHandPinky3
												{
													OFFSET 8.147003 0.000000 0.000000
													CHANNELS 3 Xrotation Yrotation Zrotation
													End Site
													{
														OFFSET 0.000000 0.000000 0.000000
													}
												}
											}
										}
									}
								}
							}
						}
					}
					JOINT RightShoulder
					{
						OFFSET -3.249400 8.794197 -1.372250
						CHANNELS 3 Xrotation Yrotation Zrotation
						JOINT RightShoulder_split
						{
							OFFSET -3.249400 8.794197 -1.372250
							CHANNELS 3 Xrotation Yrotation Zrotation
							JOINT RightArm
							{
								OFFSET -11.953299 -2.279007 -0.146200
								CHANNELS 3 Xrotation Yrotation Zrotation
								JOINT RightForeArm
								{
									OFFSET -18.448900 0.000000 0.000000
									CHANNELS 3 Xrotation Yrotation Zrotation
									JOINT RightHand
									{
										OFFSET -29.527802 0.000000 0.000000
										CHANNELS 3 Xrotation Yrotation Zrotation
										JOINT RightHandThumb1
										{
											OFFSET -10.739754 -2.369614 9.225399
											CHANNELS 3 Xrotation Yrotation Zrotation
											JOINT RightHandThumb2
											{
												OFFSET -4.926170 -2.844131 2.844125
												CHANNELS 3 Xrotation Yrotation Zrotation
												JOINT RightHandThumb3
												{
													OFFSET -4.614891 -2.664413 2.664409
													CHANNELS 3 Xrotation Yrotation Zrotation
													JOINT RightHandThumb4
													{
														OFFSET -4.432465 -2.559082 2.559083
														CHANNELS 3 Xrotation Yrotation Zrotation
														End Site
														{
															OFFSET 0.000000 0.000000 0.000000
														}
													}
												}
											}
										}
										JOINT RightHandIndex1
										{
											OFFSET -26.467674 0.187653 6.405298
											CHANNELS 3 Xrotation Yrotation Zrotation
											JOINT RightHandIndex2
											{
												OFFSET -8.792900 0.000000 0.000000
												CHANNELS 3 Xrotation Yrotation Zrotation
												JOINT RightHandIndex3
												{
													OFFSET -10.075203 0.000000 0.000000
													CHANNELS 3 Xrotation Yrotation Zrotation
													End Site
													{
														OFFSET 0.000000 0.000000 0.000000
													}
												}
											}
										}
										JOINT RightHandMiddle1
										{
											OFFSET -25.764404 0.000000 0.000000
											CHANNELS 3 Xrotation Yrotation Zrotation
											JOINT RightHandMiddle2
											{
												OFFSET -9.393974 0.000000 0.000000
												CHANNELS 3 Xrotation Yrotation Zrotation
												JOINT RightHandMiddle3
												{
													OFFSET -10.771950 0.000000 0.000000
													CHANNELS 3 Xrotation Yrotation Zrotation
													End Site
													{
														OFFSET 0.000000 0.000000 0.000000
													}
												}
											}
										}
										JOINT RightHandRing1
										{
											OFFSET -24.660927 0.144547 -6.225808
											CHANNELS 3 Xrotation Yrotation Zrotation
											JOINT RightHandRing2
											{
												OFFSET -9.393799 0.000000 0.000000
												CHANNELS 3 Xrotation Yrotation Zrotation
												JOINT RightHandRing3
												{
													OFFSET -9.928497 0.000000 0.000000
													CHANNELS 3 Xrotation Yrotation Zrotation
													End Site
													{
														OFFSET 0.000000 0.000000 0.000000
													}
												}
											}
										}
										JOINT RightHandPinky1
										{
											OFFSET -23.655350 0.125290 -12.815412
											CHANNELS 3 Xrotation Yrotation Zrotation
											JOINT RightHandPinky2
											{
												OFFSET -8.425102 0.000000 0.000000
												CHANNELS 3 Xrotation Yrotation Zrotation
												JOINT RightHandPinky3
												{
													OFFSET -8.147003 0.000000 0.000000
													CHANNELS 3 Xrotation Yrotation Zrotation
													End Site
													{
														OFFSET 0.000000 0.000000 0.000000
													}
												}
											}
										}
									}
								}
							}
						}
					}
				}
			}
		}
	}
	JOINT LeftUpLeg
	{
		OFFSET 11.394100 -6.187798 -0.413800
		CHANNELS 3 Xrotation Yrotation Zrotation
		JOINT LeftLeg
		{
			OFFSET 0.430247 -32.302673 3.732800
			CHANNELS 3 Xrotation Yrotation Zrotation
			JOINT LeftFoot
			{
				OFFSET -0.430247 -48.264931 -6.423300
				CHANNELS 3 Xrotation Yrotation Zrotation
				JOINT LeftToeBase
				{
					OFFSET 4.230900 -16.068199 23.438400
					CHANNELS 3 Xrotation Yrotation Zrotation
					JOINT LeftToe_End
					{
						OFFSET 4.510700 0.695400 19.974600
						CHANNELS 3 Xrotation Yrotation Zrotation
						End Site
						{
							OFFSET 0.000000 0.000000 0.000000
						}
					}
				}
			}
		}
	}
	JOINT RightUpLeg
	{
		OFFSET -11.333700 -6.187798 -0.413800
		CHANNELS 3 Xrotation Yrotation Zrotation
		JOINT RightLeg
		{
			OFFSET -0.430392 -32.302628 3.733000
			CHANNELS 3 Xrotation Yrotation Zrotation
			JOINT RightFoot
			{
				OFFSET 0.430392 -48.264973 -6.423500
				CHANNELS 3 Xrotation Yrotation Zrotation
				JOINT RightToeBase
				{
					OFFSET -4.230900 -16.068199 23.438400
					CHANNELS 3 Xrotation Yrotation Zrotation
					JOINT RightToe_End
					{
						OFFSET -4.510700 0.695400 19.974600
						CHANNELS 3 Xrotation Yrotation Zrotation
						End Site
						{
							OFFSET 0.000000 0.000000 0.000000
						}
					}
				}
			}
		}
	}
}
MOTION
Frames: 5
Frame Time: 0.016667
0.277790 99.952797 0.413852 -0.893444 1.576317 -5.169423 1.294058 -1.200408 2.827090 0.728744 0.264195 5.944686 0.000000 0.000000 0.000000 0.710789 0.781493 5.851996 1.045309 -0.304693 -2.163986 1.584931 0.544179 -8.140492 0.000000 -0.000000 0.000000 3.582358 -13.764039 -5.044452 0.000000 0.000000 0.000000 4.032788 3.514252 -83.678341 -0.000000 -14.506745 0.000026 -27.592520 3.698837 -9.416218 18.491270 -0.461416 10.916054 1.284049 32.757608 -3.088964 2.117131 9.311160 -0.358617 0.000000 -0.000001 0.000000 0.339563 4.671352 -7.844278 0.387036 2.823580 -20.566232 0.000001 -0.000000 -0.000000 0.912584 8.769264 -15.831750 0.919071 3.991134 -33.400414 -0.000001 0.000000 0.000001 2.555819 11.673029 -26.909216 1.710651 3.886782 -40.215457 -0.000001 -0.000001 -0.000001 5.576074 16.029173 -36.940627 1.378688 4.077639 -45.645621 -0.000000 0.000001 -0.000000 4.508129 3.324374 5.471577 0.000000 0.000000 0.000000 -1.219626 0.655870 67.345406 -0.000005 17.736787 0.000009 -11.193156 -9.123241 10.139283 18.491279 0.461412 -10.916075 1.284040 -32.757598 3.088935 2.008704 -8.430479 1.114721 -0.000000 -0.000001 0.000001 0.339564 -4.671355 7.844277 0.387031 -2.823580 20.566256 -0.000000 -0.000000 0.000001 0.912585 -8.769265 15.831750 0.919073 -3.991134 33.400431 -0.000000 -0.000000 0.000000 2.555816 -11.673032 26.909187 1.710653 -3.886781 40.215461 0.000000 0.000000 -0.000002 5.576073 -16.029177 36.940627 1.378690 -4.077636 45.645639 -0.000000 0.000001 0.000000 -21.315035 10.064630 16.946958 22.210001 9.491904 2.417945 0.427539 3.222156 -9.470138 -0.419547 0.000003 0.000001 -0.000000 -0.000002 -0.000000 -0.778639 -4.777147 10.445596 10.122761 -5.075243 3.428096 -8.385733 0.934702 -8.066582 -0.524591 -0.000002 0.000002 0.000000 0.000001 0.000000 
0.141019 99.961143 0.400165 -0.842997 1.626889 -5.284330 1.258071 -1.199518 2.859251 0.804996 0.271352 5.942363 0.000000 0.000000 0.000000 0.791298 0.784184 5.830780 0.939035 -0.325876 -2.038776 0.998202 0.423417 -7.945850 -0.000000 0.000000 -0.000000 3.578792 -13.707248 -5.015858 0.000000 0.000000 0.000000 3.780837 3.390086 -83.456019 -0.000001 -14.511152 -0.000041 -27.318769 4.020858 -9.432606 18.491274 -0.461415 10.916057 1.284050 32.757611 -3.088963 2.117131 9.311156 -0.358616 -0.000000 -0.000001 -0.000000 0.339566 4.671352 -7.844277 0.387035 2.823579 -20.566229 0.000000 -0.000001 0.000002 0.912587 8.769263 -15.831750 0.919071 3.991134 -33.400421 0.000000 -0.000000 0.000003 2.555821 11.673031 -26.909214 1.710651 3.886782 -40.215461 0.000000 -0.000001 -0.000002 5.576078 16.029173 -36.940631 1.378690 4.077640 -45.645625 0.000001 0.000000 0.000000 4.481674 3.349431 5.590985 0.000000 0.000000 0.000000 -1.177694 1.237860 67.216240 -0.000001 17.736830 0.000021 -11.184833 -8.945792 10.174438 18.491277 0.461413 -10.916074 1.284039 -32.757601 3.088936 2.008702 -8.430477 1.114720 -0.000001 -0.000000 -0.000000 0.339565 -4.671354 7.844280 0.387031 -2.823580 20.566256 0.000000 -0.000000 0.000000 0.912585 -8.769264 15.831752 0.919073 -3.991133 33.400438 -0.000000 -0.000000 0.000004 2.555815 -11.673031 26.909188 1.710654 -3.886780 40.215467 -0.000000 0.000000 0.000001 5.576073 -16.029178 36.940631 1.378690 -4.077635 45.645639 -0.000002 -0.000001 -0.000000 -21.389480 9.953939 17.128335 22.146970 9.582010 2.441671 0.525031 3.104606 -9.568664 -0.419549 -0.000002 0.000000 -0.000000 -0.000002 0.000000 -0.625747 -4.641764 10.675254 9.752717 -5.199424 3.451922 -8.243824 0.901952 -8.182929 -0.515508 -0.000001 0.000001 -0.000000 -0.000000 -0.000000 
0.005895 99.964882 0.388693 -0.793462 1.679972 -5.401203 1.221986 -1.207616 2.889714 0.883787 0.274246 5.935622 0.000000 0.000000 0.000000 0.874438 0.782059 5.804657 0.823466 -0.344953 -1.909928 0.389959 0.303444 -7.738951 0.000000 -0.000000 0.000000 3.574453 -13.651339 -4.988281 0.000000 0.000000 0.000000 3.522155 3.255682 -83.224632 0.000006 -14.517244 0.000026 -27.029895 4.361262 -9.454742 18.491272 -0.461415 10.916056 1.284051 32.757615 -3.088962 2.117132 9.311155 -0.358617 -0.000000 -0.000000 -0.000000 0.339563 4.671352 -7.844276 0.387035 2.823579 -20.566226 -0.000000 -0.000000 0.000004 0.912587 8.769265 -15.831754 0.919072 3.991135 -33.400411 -0.000001 0.000001 0.000002 2.555822 11.673031 -26.909216 1.710653 3.886781 -40.215457 0.000000 -0.000000 -0.000001 5.576078 16.029173 -36.940634 1.378690 4.077640 -45.645625 -0.000002 0.000000 -0.000000 4.449801 3.381856 5.730773 0.000000 0.000000 0.000000 -1.131087 1.840464 67.077075 0.000001 17.687984 -0.000007 -11.183874 -8.708327 10.219235 18.491279 0.461413 -10.916074 1.284041 -32.757608 3.088934 2.008703 -8.430476 1.114720 -0.000001 -0.000001 0.000001 0.339564 -4.671355 7.844279 0.387031 -2.823580 20.566255 -0.000000 -0.000000 -0.000003 0.912585 -8.769263 15.831752 0.919073 -3.991133 33.400434 0.000001 -0.000000 -0.000001 2.555816 -11.673032 26.909188 1.710654 -3.886782 40.215467 -0.000000 -0.000000 0.000003 5.576073 -16.029177 36.940634 1.378691 -4.077637 45.645632 0.000000 0.000000 -0.000000 -21.475838 9.838722 17.310599 22.106619 9.661435 2.468169 0.612436 2.996652 -9.668473 -0.419549 -0.000010 -0.000001 0.000000 0.000000 0.000000 -0.482804 -4.506933 10.907275 9.403455 -5.325781 3.471779 -8.113046 0.870241 -8.296740 -0.510302 -0.000007 0.000002 -0.000000 0.000001 -0.000000 
-0.123721 99.956566 0.383323 -0.746166 1.739977 -5.521960 1.186026 -1.224201 2.917424 0.965308 0.273020 5.924296 0.000000 0.000000 0.000000 0.960402 0.775222 5.773464 0.698738 -0.362127 -1.777484 -0.238802 0.182365 -7.518666 0.000000 0.000000 -0.000000 3.569245 -13.596745 -4.962266 0.000000 0.000000 0.000000 3.256765 3.110458 -82.983137 0.000005 -14.524935 0.000023 -26.724486 4.721303 -9.483411 18.491274 -0.461415 10.916055 1.284052 32.757615 -3.088962 2.117131 9.311156 -0.358617 -0.000000 -0.000002 0.000001 0.339565 4.671352 -7.844278 0.387034 2.823579 -20.566224 0.000001 -0.000002 0.000002 0.912588 8.769263 -15.831752 0.919069 3.991134 -33.400414 0.000001 0.000000 -0.000002 2.555823 11.673030 -26.909216 1.710654 3.886781 -40.215457 0.000001 -0.000000 -0.000000 5.576077 16.029175 -36.940627 1.378686 4.077640 -45.645621 0.000004 0.000000 0.000000 4.412046 3.421893 5.891973 0.000000 0.000000 0.000000 -1.079199 2.463874 66.927159 -0.000001 17.587211 0.000005 -11.191070 -8.406587 10.273782 18.491279 0.461414 -10.916075 1.284038 -32.757598 3.088934 2.008704 -8.430472 1.114719 -0.000000 -0.000000 -0.000000 0.339564 -4.671355 7.844278 0.387031 -2.823580 20.566253 -0.000000 -0.000000 -0.000001 0.912585 -8.769263 15.831754 0.919073 -3.991134 33.400428 -0.000000 0.000000 -0.000004 2.555815 -11.673032 26.909187 1.710653 -3.886780 40.215467 -0.000000 -0.000000 -0.000001 5.576073 -16.029178 36.940631 1.378689 -4.077638 45.645635 -0.000001 0.000001 0.000000 -21.594628 9.711458 17.493728 22.128099 9.712559 2.501529 0.672989 2.914047 -9.771812 -0.419545 -0.000002 0.000001 -0.000000 -0.000000 -0.000000 -0.379089 -4.375259 11.137008 9.131179 -5.457117 3.488788 -8.018404 0.840936 -8.401596 -0.514994 -0.000000 0.000002 -0.000000 -0.000000 0.000000 
-0.252565 99.940002 0.381257 -0.700775 1.803876 -5.648175 1.150476 -1.250486 2.943199 1.050319 0.266991 5.907281 0.000000 0.000000 0.000000 1.049970 0.762834 5.735964 0.563218 -0.377231 -1.640716 -0.891137 0.058435 -7.280997 0.000000 -0.000000 0.000000 3.562879 -13.544195 -4.938705 0.000000 0.000000 0.000000 2.983160 2.951936 -82.727852 -0.000002 -14.534470 0.000014 -26.397660 5.106589 -9.520543 18.491269 -0.461415 10.916057 1.284050 32.757615 -3.088965 2.117131 9.311158 -0.358617 -0.000000 -0.000002 0.000002 0.339564 4.671352 -7.844277 0.387031 2.823579 -20.566227 0.000001 -0.000001 0.000003 0.912587 8.769265 -15.831752 0.919072 3.991132 -33.400417 -0.000001 0.000001 -0.000001 2.555821 11.673031 -26.909216 1.710653 3.886782 -40.215454 0.000000 -0.000000 -0.000001 5.576076 16.029173 -36.940638 1.378688 4.077640 -45.645628 -0.000001 0.000000 0.000000 4.366723 3.471358 6.080086 0.000000 0.000000 0.000000 -1.020836 3.112626 66.763064 -0.000003 17.420838 0.000011 -11.208922 -8.022984 10.340272 18.491276 0.461414 -10.916073 1.284038 -32.757598 3.088935 2.008704 -8.430477 1.114720 -0.000001 0.000001 0.000000 0.339564 -4.671354 7.844278 0.387031 -2.823580 20.566255 0.000000 0.000000 -0.000001 0.912585 -8.769263 15.831752 0.919073 -3.991134 33.400431 0.000000 -0.000001 0.000003 2.555816 -11.673031 26.909188 1.710653 -3.886781 40.215467 -0.000000 -0.000001 -0.000000 5.576073 -16.029178 36.940631 1.378690 -4.077636 45.645625 -0.000002 0.000000 -0.000000 -21.735532 9.574228 17.681649 22.190281 9.745472 2.540568 0.717471 2.847958 -9.880103 -0.419547 -0.000003 -0.000001 0.000000 0.000000 0.000000 -0.298067 -4.245553 11.370349 8.904436 -5.590130 3.504538 -7.945335 0.812996 -8.503768 -0.526967 -0.000003 0.000000 0.000000 -0.000001 -0.000000 
